<?xml version="1.0" standalone="no"?>
<!DOCTYPE svg PUBLIC "-//W3C//DTD SVG 20010904//EN"
 "http://www.w3.org/TR/2001/REC-SVG-20010904/DTD/svg10.dtd">
<svg version="1.0" xmlns="http://www.w3.org/2000/svg"
 width="1280.000000pt" height="1272.000000pt" viewBox="0 0 1280.000000 1272.000000"
 preserveAspectRatio="xMidYMid meet">
<metadata>
Created by potrace 1.15, written by Peter Selinger 2001-2017
</metadata>
<g transform="translate(0.000000,1272.000000) scale(0.100000,-0.100000)"
fill="#000000" stroke="none">
<path d="M12653 12701 c-86 -40 -97 -49 -510 -447 -46 -45 -94 -86 -106 -93
-29 -16 -102 -117 -115 -161 -6 -19 -14 -55 -17 -80 -8 -50 -74 -210 -87 -210
-4 0 -8 -9 -8 -20 0 -30 -10 -25 -73 31 -44 39 -75 57 -130 74 -69 22 -84 23
-334 20 -288 -4 -244 4 -438 -79 l-60 -25 -8 24 c-5 14 -12 25 -17 25 -14 0
-96 162 -109 214 -7 27 -19 62 -26 77 -28 53 -115 148 -162 176 -25 15 -83 54
-129 87 -45 34 -111 82 -145 107 -35 26 -97 76 -136 112 -122 109 -272 169
-329 132 l-27 -17 6 -117 c4 -75 15 -153 32 -221 14 -58 23 -115 20 -127 -3
-13 -1 -23 4 -23 5 0 18 -42 30 -92 29 -124 81 -210 190 -318 107 -107 179
-156 345 -236 72 -35 144 -74 161 -87 29 -24 29 -27 31 -123 2 -82 9 -124 43
-244 32 -113 41 -162 41 -223 0 -150 -104 -549 -209 -797 -21 -52 -116 -197
-304 -470 -300 -433 -315 -450 -469 -530 -164 -86 -251 -99 -380 -56 -153 50
-299 71 -483 70 -203 -1 -314 -17 -707 -103 -445 -98 -470 -101 -778 -111
-151 -5 -347 -16 -435 -24 -504 -49 -987 -22 -1360 75 -909 236 -1003 254
-1425 269 -146 5 -362 15 -480 21 -294 15 -496 2 -755 -48 -295 -56 -623 -167
-785 -263 -30 -18 -127 -56 -215 -85 -179 -58 -303 -112 -355 -154 -20 -16
-56 -38 -80 -51 -25 -12 -73 -51 -108 -86 -35 -35 -68 -64 -73 -64 -4 0 -33
-23 -62 -50 -95 -89 -104 -120 -143 -499 -38 -371 -40 -430 -17 -521 21 -87
21 -295 -1 -418 -9 -50 -16 -104 -15 -120 l0 -27 17 24 c20 29 80 178 83 206
1 11 5 2 9 -20 7 -37 8 -38 15 -16 5 14 33 75 63 135 69 141 86 190 107 301
25 134 27 138 40 80 l12 -50 8 50 c4 28 12 59 17 70 6 15 7 10 3 -15 -13 -92
-25 -430 -20 -555 11 -251 33 -371 129 -696 64 -219 90 -328 110 -469 68 -464
-14 -872 -231 -1161 -79 -104 -391 -445 -554 -604 -114 -111 -158 -146 -289
-229 -342 -217 -418 -279 -451 -364 -37 -101 -11 -207 110 -436 76 -144 108
-220 247 -595 52 -139 112 -292 134 -340 98 -219 188 -667 235 -1161 17 -177
22 -208 38 -227 6 -9 39 -13 97 -13 119 0 126 -7 111 -127 -21 -172 -13 -212
53 -270 70 -62 230 -99 409 -94 26 1 46 9 62 25 13 13 32 23 42 22 15 -1 19 8
21 49 2 42 -4 64 -41 140 -24 50 -66 120 -94 156 l-49 65 -11 131 c-9 113 -14
140 -41 195 -16 34 -51 88 -76 118 -72 85 -129 242 -181 490 -13 63 -31 138
-39 165 -9 28 -16 71 -16 96 0 26 -7 82 -14 125 -8 44 -24 147 -35 229 -24
173 -40 263 -76 430 -69 315 -91 481 -71 529 16 39 158 174 264 249 44 32 136
83 204 113 212 95 510 251 638 333 29 19 32 25 -63 -119 -72 -108 -171 -242
-253 -342 -39 -48 -48 -67 -52 -108 -9 -93 40 -209 139 -332 65 -80 70 -91
134 -267 29 -80 108 -292 175 -471 185 -495 231 -675 251 -975 11 -178 20
-212 63 -240 36 -24 58 -78 54 -133 l-3 -47 47 3 c47 4 47 4 54 -32 3 -20 15
-42 25 -49 16 -11 18 -26 16 -119 -2 -125 6 -143 92 -195 66 -40 166 -63 296
-70 112 -6 155 5 155 37 0 18 3 19 20 10 17 -9 22 -7 31 14 27 58 -59 246
-169 370 -33 38 -34 39 -27 106 9 94 -3 126 -91 228 -82 96 -92 119 -169 402
-90 336 -99 378 -180 867 -61 369 -68 436 -69 608 0 169 2 177 81 305 220 356
902 1220 1248 1580 147 153 242 277 350 458 66 110 83 132 102 132 23 0 23 -1
9 -22 -29 -42 -20 -46 52 -27 108 31 208 49 319 60 113 10 145 4 93 -18 -51
-21 -30 -25 60 -13 45 6 123 12 173 12 80 1 98 -2 142 -24 102 -52 267 -114
392 -147 73 -20 569 -62 798 -68 123 -3 310 -1 425 6 482 26 439 26 433 2 -7
-27 -3 -26 60 5 44 23 71 28 182 35 114 8 295 25 327 32 14 3 138 -191 195
-305 88 -173 97 -225 113 -648 13 -335 13 -1036 0 -1175 -6 -60 -20 -162 -31
-225 -35 -194 -18 -310 66 -440 44 -68 78 -177 104 -335 37 -222 43 -379 40
-1050 -2 -352 0 -650 4 -662 7 -19 16 -23 51 -23 51 0 61 -10 71 -67 3 -22 12
-49 19 -59 9 -12 12 -38 8 -81 -13 -169 93 -245 361 -259 99 -5 129 -4 160 9
20 9 37 23 37 31 0 10 8 15 22 13 20 -2 23 3 26 41 5 73 -86 240 -182 331 -42
41 -44 58 -13 111 20 36 21 42 7 64 -96 158 -119 216 -148 371 -47 249 -81
432 -86 470 -12 76 -36 611 -36 781 0 157 2 181 30 290 34 136 60 295 60 370
0 28 -6 89 -14 135 -27 158 -38 284 -32 364 16 197 130 1118 162 1312 28 171
186 561 257 637 28 30 41 36 74 36 48 0 84 -25 107 -74 13 -28 18 -97 26 -403
5 -202 14 -402 20 -443 10 -76 31 -435 52 -915 8 -198 8 -309 -1 -465 -13
-229 -9 -275 39 -394 51 -130 82 -263 112 -476 26 -189 9 -915 -31 -1300 -5
-47 -6 -89 -1 -93 4 -5 18 -4 30 3 32 17 47 6 55 -38 3 -22 13 -48 20 -59 9
-11 14 -43 15 -81 0 -35 6 -75 14 -90 49 -93 184 -147 396 -159 120 -6 160 2
160 33 0 10 8 14 28 12 25 -3 27 0 30 35 6 65 -77 214 -179 322 l-47 50 0 75
c-1 60 -7 90 -30 146 -83 200 -105 431 -99 1056 2 265 8 474 16 538 15 120 4
307 -29 509 -11 64 -20 166 -20 227 0 246 50 692 100 894 11 41 55 253 99 470
73 357 87 415 152 600 109 315 134 390 193 590 30 102 81 246 114 320 33 74
67 160 75 190 9 31 45 100 81 155 93 142 182 292 206 347 11 26 54 174 95 330
109 416 152 549 197 609 36 48 93 165 143 294 24 60 96 234 160 385 154 361
207 495 266 669 48 139 78 209 79 184 0 -7 4 -13 8 -13 5 0 28 84 51 188 66
288 125 508 166 612 78 201 90 259 115 560 6 69 17 152 25 185 8 33 21 101 29
152 9 52 25 112 40 141 14 28 29 70 32 93 9 51 33 76 129 131 152 87 204 126
305 228 92 91 113 118 158 207 45 87 55 117 68 205 9 57 16 112 16 123 0 11 7
74 15 140 8 66 13 162 11 214 -4 83 -7 96 -27 112 -29 24 -65 24 -118 0z"/>
</g>
</svg>
